<?xml version="1.0" encoding="UTF-8"?>
<svg id="Layer_1" data-name="Layer 1" xmlns="http://www.w3.org/2000/svg" xmlns:xlink="http://www.w3.org/1999/xlink" viewBox="0 0 888.74 667.25">
  <defs>
    <style>
      .cls-1 {
        fill: #416cdd;
      }

      .cls-1, .cls-2, .cls-3, .cls-4, .cls-5, .cls-6, .cls-7, .cls-8, .cls-9, .cls-10, .cls-11, .cls-12, .cls-13, .cls-14, .cls-15, .cls-16, .cls-17, .cls-18, .cls-19, .cls-20, .cls-21, .cls-22, .cls-23, .cls-24, .cls-25 {
        stroke-width: 0px;
      }

      .cls-2 {
        fill: #1f1f1f;
      }

      .cls-3 {
        fill: #326ce5;
      }

      .cls-26 {
        opacity: .1;
      }

      .cls-4 {
        fill: #262626;
      }

      .cls-5 {
        fill: url(#linear-gradient);
      }

      .cls-6 {
        fill: url(#radial-gradient);
      }

      .cls-7 {
        fill: url(#linear-gradient-11);
      }

      .cls-8 {
        fill: url(#linear-gradient-12);
      }

      .cls-9 {
        fill: url(#linear-gradient-13);
      }

      .cls-10 {
        fill: url(#linear-gradient-10);
      }

      .cls-11 {
        fill: #2a2a2b;
      }

      .cls-12 {
        fill: #1a1a1a;
      }

      .cls-13 {
        fill: #000;
      }

      .cls-27 {
        fill: none;
        stroke: #326ce5;
        stroke-miterlimit: 10;
        stroke-width: .25px;
      }

      .cls-28 {
        opacity: .3;
      }

      .cls-29 {
        opacity: .25;
      }

      .cls-30, .cls-23 {
        opacity: .4;
      }

      .cls-31 {
        opacity: .6;
      }

      .cls-32 {
        opacity: .5;
      }

      .cls-33 {
        opacity: .7;
      }

      .cls-14 {
        fill: #303030;
      }

      .cls-15 {
        fill: url(#linear-gradient-4);
      }

      .cls-16 {
        fill: url(#linear-gradient-2);
      }

      .cls-17 {
        fill: url(#linear-gradient-3);
      }

      .cls-18 {
        fill: url(#linear-gradient-8);
      }

      .cls-19 {
        fill: url(#linear-gradient-9);
      }

      .cls-20 {
        fill: url(#linear-gradient-7);
      }

      .cls-21 {
        fill: url(#linear-gradient-5);
      }

      .cls-22 {
        fill: url(#linear-gradient-6);
      }

      .cls-34 {
        isolation: isolate;
      }

      .cls-23, .cls-25 {
        fill: #fff;
      }

      .cls-24 {
        fill: #ccc;
      }
    </style>
    <radialGradient id="radial-gradient" cx="445.92" cy="368.98" fx="445.92" fy="368.98" r="350.01" gradientUnits="userSpaceOnUse">
      <stop offset="0" stop-color="#326ce5"/>
      <stop offset=".02" stop-color="rgba(50, 108, 229, .97)" stop-opacity=".97"/>
      <stop offset=".17" stop-color="rgba(50, 108, 229, .72)" stop-opacity=".72"/>
      <stop offset=".32" stop-color="rgba(50, 108, 229, .5)" stop-opacity=".5"/>
      <stop offset=".47" stop-color="rgba(50, 108, 229, .32)" stop-opacity=".32"/>
      <stop offset=".61" stop-color="rgba(50, 108, 229, .18)" stop-opacity=".18"/>
      <stop offset=".75" stop-color="rgba(50, 108, 229, .08)" stop-opacity=".08"/>
      <stop offset=".88" stop-color="rgba(50, 108, 229, .02)" stop-opacity=".02"/>
      <stop offset="1" stop-color="#326ce5" stop-opacity="0"/>
    </radialGradient>
    <linearGradient id="linear-gradient" x1="340.73" y1="413.32" x2="365.88" y2="488.75" gradientUnits="userSpaceOnUse">
      <stop offset=".19" stop-color="#326ce5"/>
      <stop offset=".22" stop-color="rgba(50, 108, 229, .94)" stop-opacity=".94"/>
      <stop offset=".34" stop-color="rgba(50, 108, 229, .69)" stop-opacity=".69"/>
      <stop offset=".46" stop-color="rgba(50, 108, 229, .48)" stop-opacity=".48"/>
      <stop offset=".57" stop-color="rgba(50, 108, 229, .31)" stop-opacity=".31"/>
      <stop offset=".69" stop-color="rgba(50, 108, 229, .17)" stop-opacity=".17"/>
      <stop offset=".8" stop-color="rgba(50, 108, 229, .08)" stop-opacity=".08"/>
      <stop offset=".9" stop-color="rgba(50, 108, 229, .02)" stop-opacity=".02"/>
      <stop offset="1" stop-color="#326ce5" stop-opacity="0"/>
    </linearGradient>
    <linearGradient id="linear-gradient-2" x1="-3608.49" y1="363.07" x2="-3639.09" y2="444.15" gradientTransform="translate(-2991.05) rotate(-180) scale(1 -1)" gradientUnits="userSpaceOnUse">
      <stop offset="0" stop-color="#326ce5"/>
      <stop offset=".33" stop-color="rgba(50, 108, 229, .63)" stop-opacity=".63"/>
      <stop offset=".65" stop-color="rgba(50, 108, 229, .29)" stop-opacity=".29"/>
      <stop offset=".88" stop-color="rgba(50, 108, 229, .08)" stop-opacity=".08"/>
      <stop offset="1" stop-color="#326ce5" stop-opacity="0"/>
    </linearGradient>
    <linearGradient id="linear-gradient-3" x1="318.56" y1="338.12" x2="266.42" y2="476.27" gradientUnits="userSpaceOnUse">
      <stop offset="0" stop-color="#326ce5"/>
      <stop offset=".25" stop-color="rgba(50, 108, 229, .73)" stop-opacity=".73"/>
      <stop offset=".61" stop-color="rgba(50, 108, 229, .34)" stop-opacity=".34"/>
      <stop offset=".87" stop-color="rgba(50, 108, 229, .09)" stop-opacity=".09"/>
      <stop offset="1" stop-color="#326ce5" stop-opacity="0"/>
    </linearGradient>
    <linearGradient id="linear-gradient-4" x1="-3465.08" y1="408.83" x2="-3517.23" y2="547" gradientTransform="translate(-2976.43) rotate(-180) scale(1 -1)" gradientUnits="userSpaceOnUse">
      <stop offset=".17" stop-color="#326ce5"/>
      <stop offset=".21" stop-color="rgba(50, 108, 229, .92)" stop-opacity=".92"/>
      <stop offset=".33" stop-color="rgba(50, 108, 229, .68)" stop-opacity=".68"/>
      <stop offset=".45" stop-color="rgba(50, 108, 229, .47)" stop-opacity=".47"/>
      <stop offset=".56" stop-color="rgba(50, 108, 229, .3)" stop-opacity=".3"/>
      <stop offset=".68" stop-color="rgba(50, 108, 229, .17)" stop-opacity=".17"/>
      <stop offset=".79" stop-color="rgba(50, 108, 229, .08)" stop-opacity=".08"/>
      <stop offset=".9" stop-color="rgba(50, 108, 229, .02)" stop-opacity=".02"/>
      <stop offset="1" stop-color="#326ce5" stop-opacity="0"/>
    </linearGradient>
    <linearGradient id="linear-gradient-5" x1="446.84" y1="464.26" x2="446.84" y2="86.23" gradientUnits="userSpaceOnUse">
      <stop offset="0" stop-color="#326ce5"/>
      <stop offset=".05" stop-color="rgba(50, 108, 229, .92)" stop-opacity=".92"/>
      <stop offset=".19" stop-color="rgba(50, 108, 229, .68)" stop-opacity=".68"/>
      <stop offset=".33" stop-color="rgba(50, 108, 229, .47)" stop-opacity=".47"/>
      <stop offset=".47" stop-color="rgba(50, 108, 229, .3)" stop-opacity=".3"/>
      <stop offset=".61" stop-color="rgba(50, 108, 229, .17)" stop-opacity=".17"/>
      <stop offset=".74" stop-color="rgba(50, 108, 229, .08)" stop-opacity=".08"/>
      <stop offset=".88" stop-color="rgba(50, 108, 229, .02)" stop-opacity=".02"/>
      <stop offset="1" stop-color="#326ce5" stop-opacity="0"/>
    </linearGradient>
    <linearGradient id="linear-gradient-6" x1="346.87" y1="185.45" x2="344.14" y2="332.47" xlink:href="#linear-gradient-5"/>
    <linearGradient id="linear-gradient-7" x1="390.69" y1="218.01" x2="387.96" y2="365.03" xlink:href="#linear-gradient-5"/>
    <linearGradient id="linear-gradient-8" x1="362.92" y1="251.5" x2="361.35" y2="335.84" xlink:href="#linear-gradient-5"/>
    <linearGradient id="linear-gradient-9" x1="418.31" y1="251.52" x2="415.72" y2="390.59" xlink:href="#linear-gradient-5"/>
    <linearGradient id="linear-gradient-10" x1="-3571.17" y1="185.45" x2="-3573.9" y2="332.47" gradientTransform="translate(-3026.78) rotate(-180) scale(1 -1)" xlink:href="#linear-gradient-5"/>
    <linearGradient id="linear-gradient-11" x1="-3527.35" y1="218.01" x2="-3530.08" y2="365.03" gradientTransform="translate(-3026.78) rotate(-180) scale(1 -1)" xlink:href="#linear-gradient-5"/>
    <linearGradient id="linear-gradient-12" x1="-3555.12" y1="251.5" x2="-3556.69" y2="335.84" gradientTransform="translate(-3026.78) rotate(-180) scale(1 -1)" xlink:href="#linear-gradient-5"/>
    <linearGradient id="linear-gradient-13" x1="-3499.73" y1="251.52" x2="-3502.32" y2="390.59" gradientTransform="translate(-3026.78) rotate(-180) scale(1 -1)" xlink:href="#linear-gradient-5"/>
  </defs>
  <path class="cls-6" d="M873.88,432.41l.45-.26-109.42-63.17,108.71-63.18-.45-.26-108.71,63.18-45.2-26.1,108.71-63.18-.46-.27-108.71,63.18-45.2-26.1,108.71-63.18-.45-.26-108.71,63.18-45.2-26.1,108.71-63.18-.46-.27-108.71,63.18-45.2-26.1,108.71-63.18-.46-.27-108.71,63.18-45.2-26.1,108.71-63.18-.45-.26-108.71,63.18-45.2-26.1,108.71-63.18-.46-.27-108.71,63.18-45.2-26.1,108.71-63.18-.45-.26-108.71,63.18-109.42-63.17-.45.26,109.42,63.17-44.9,26.1-109.42-63.17-.46.27,109.42,63.17-44.9,26.1-109.42-63.17-.45.26,109.42,63.17-44.9,26.1-109.42-63.17-.46.27,109.42,63.17-44.9,26.1-109.42-63.17-.46.27,109.42,63.17-44.9,26.1-109.42-63.17-.45.26,109.42,63.17-44.9,26.1-109.42-63.17-.46.27,109.42,63.17-44.9,26.1-109.42-63.17-.45.26,109.42,63.17-108.71,63.18.45.26,108.71-63.18,45.2,26.1-108.71,63.18.46.27,108.71-63.18,45.2,26.1-108.71,63.18.45.26,108.71-63.18,45.2,26.1-108.71,63.18.46.27,108.71-63.18,45.2,26.1-108.71,63.18.46.27,108.71-63.18,45.2,26.1-108.71,63.18.45.26,108.71-63.18,45.2,26.1-108.71,63.18.46.27,108.71-63.18,45.2,26.1-108.71,63.18.45.26,108.71-63.18,109.42,63.17.45-.26-109.42-63.17,44.9-26.1,109.42,63.17.46-.27-109.42-63.17,44.9-26.1,109.42,63.17.45-.26-109.42-63.17,44.9-26.1,109.42,63.17.46-.27-109.42-63.17,44.9-26.1,109.42,63.17.46-.27-109.42-63.17,44.9-26.1,109.42,63.17.45-.26-109.42-63.17,44.9-26.1,109.42,63.17.46-.27-109.42-63.17,44.9-26.1,109.42,63.17ZM718.35,342.62l-44.9,26.1-45.2-26.1,44.9-26.1,45.2,26.1ZM446.23,342.62l44.9-26.1,45.2,26.1-44.9,26.1-45.2-26.1ZM490.97,368.98l-44.9,26.1-45.2-26.1,44.9-26.1,45.2,26.1ZM445.77,342.35l-45.2-26.1,44.9-26.1,45.2,26.1-44.9,26.1ZM445.31,342.62l-44.9,26.1-45.2-26.1,44.9-26.1,45.2,26.1ZM399.95,368.98l-44.9,26.1-45.2-26.1,44.9-26.1,45.2,26.1ZM400.41,369.24l45.2,26.1-44.9,26.1-45.2-26.1,44.9-26.1ZM446.07,395.61l45.2,26.1-44.9,26.1-45.2-26.1,44.9-26.1ZM446.52,395.34l44.9-26.1,45.2,26.1-44.9,26.1-45.2-26.1ZM491.88,368.98l44.9-26.1,45.2,26.1-44.9,26.1-45.2-26.1ZM537.24,342.62l44.9-26.1,45.2,26.1-44.9,26.1-45.2-26.1ZM536.78,342.36l-45.2-26.1,44.9-26.1,45.2,26.1-44.9,26.1ZM491.12,316l-45.2-26.1,44.9-26.1,45.2,26.1-44.9,26.1ZM445.47,289.64l-45.2-26.1,44.9-26.1,45.2,26.1-44.9,26.1ZM445.02,289.9l-44.9,26.1-45.2-26.1,44.9-26.1,45.2,26.1ZM399.66,316.26l-44.9,26.1-45.2-26.1,44.9-26.1,45.2,26.1ZM354.3,342.62l-44.9,26.1-45.2-26.1,44.9-26.1,45.2,26.1ZM308.94,368.98l-44.9,26.1-45.2-26.1,44.9-26.1,45.2,26.1ZM309.39,369.24l45.2,26.1-44.9,26.1-45.2-26.1,44.9-26.1ZM355.05,395.6l45.2,26.1-44.9,26.1-45.2-26.1,44.9-26.1ZM400.71,421.96l45.2,26.1-44.9,26.1-45.2-26.1,44.9-26.1ZM446.36,448.32l45.2,26.1-44.9,26.1-45.2-26.1,44.9-26.1ZM446.81,448.06l44.9-26.1,45.2,26.1-44.9,26.1-45.2-26.1ZM492.17,421.7l44.9-26.1,45.2,26.1-44.9,26.1-45.2-26.1ZM537.53,395.33l44.9-26.1,45.2,26.1-44.9,26.1-45.2-26.1ZM582.89,368.98l44.9-26.1,45.2,26.1-44.9,26.1-45.2-26.1ZM672.7,316.26l-44.9,26.1-45.2-26.1,44.9-26.1,45.2,26.1ZM627.04,289.9l-44.9,26.1-45.2-26.1,44.9-26.1,45.2,26.1ZM581.39,263.54l-44.9,26.1-45.2-26.1,44.9-26.1,45.2,26.1ZM535.73,237.18l-44.9,26.1-45.2-26.1,44.9-26.1,45.2,26.1ZM444.88,184.73l45.2,26.1-44.9,26.1-45.2-26.1,44.9-26.1ZM399.52,211.09l45.2,26.1-44.9,26.1-45.2-26.1,44.9-26.1ZM354.16,237.44l45.2,26.1-44.9,26.1-45.2-26.1,44.9-26.1ZM308.8,263.81l45.2,26.1-44.9,26.1-45.2-26.1,44.9-26.1ZM263.44,290.17l45.2,26.1-44.9,26.1-45.2-26.1,44.9-26.1ZM218.09,316.52l45.2,26.1-44.9,26.1-45.2-26.1,44.9-26.1ZM127.82,368.98l44.9-26.1,45.2,26.1-44.9,26.1-45.2-26.1ZM173.48,395.34l44.9-26.1,45.2,26.1-44.9,26.1-45.2-26.1ZM219.13,421.7l44.9-26.1,45.2,26.1-44.9,26.1-45.2-26.1ZM264.79,448.06l44.9-26.1,45.2,26.1-44.9,26.1-45.2-26.1ZM310.45,474.42l44.9-26.1,45.2,26.1-44.9,26.1-45.2-26.1ZM356.1,500.78l44.9-26.1,45.2,26.1-44.9,26.1-45.2-26.1ZM446.95,553.23l-45.2-26.1,44.9-26.1,45.2,26.1-44.9,26.1ZM492.31,526.87l-45.2-26.1,44.9-26.1,45.2,26.1-44.9,26.1ZM537.67,500.51l-45.2-26.1,44.9-26.1,45.2,26.1-44.9,26.1ZM583.03,474.15l-45.2-26.1,44.9-26.1,45.2,26.1-44.9,26.1ZM628.39,447.79l-45.2-26.1,44.9-26.1,45.2,26.1-44.9,26.1ZM673.74,421.43l-45.2-26.1,44.9-26.1,45.2,26.1-44.9,26.1ZM719.11,395.07l-45.2-26.1,44.9-26.1,45.2,26.1-44.9,26.1Z"/>
  <g>
    <g class="cls-34">
      <path class="cls-5" d="M398,424.78l-3.29-1.9-86.09,50.03c-1.17.68-1.17,2.38,0,3.05l29.61,17.1,3.26-1.9-28.26-16.31c-.31-.18-.31-.63,0-.81l84.76-49.26"/>
    </g>
    <g class="cls-34">
      <path class="cls-16" d="M585.16,371.87l3.29-1.9,85.4,49.63c1.48.86,1.48,3,0,3.85l-28.92,16.7-3.26-1.9,27.27-15.74c.75-.43.75-1.52,0-1.95l-83.77-48.68"/>
    </g>
    <path class="cls-17" d="M282.27,403.27l-2.22-1.3-1.37-.8h0s-11.07-6.38-11.07-6.38c-.46-.27-.46-.93,0-1.2l84.42-49.06-3.29-1.9-86.25,50.12c-1.1.64-1.1,2.23,0,2.87l12.93,7.46,30.14,17.64c.42.25.42.86,0,1.1l-62.91,36.32,3.6,1.7,63.53-36.68c1.46-.84,1.47-2.95.01-3.8l-27.51-16.08h0Z"/>
    <path class="cls-15" d="M505.31,464.51l15.47-8.93,1.37-.8h0s10.01-5.78,10.01-5.78c.93-.54.93-1.88,0-2.42l-83.37-48.45,3.29-1.9,86.06,50.01c1.19.69,1.18,2.4,0,3.09l-12.74,7.35-29.34,17.31c-.52.31-.52,1.07,0,1.37l62.68,36.19-3.6,1.7-63.95-36.92c-1.28-.74-1.29-2.58-.02-3.33l14.22-8.43-.1-.06Z"/>
    <g>
      <g class="cls-32">
        <path class="cls-13" d="M602.98,352.94c21.18,12.23,21.29,32.05.25,44.28l-117.87,68.5c-21.04,12.23-55.27,12.23-76.45,0l-118.64-68.49c-21.18-12.23-21.29-32.06-.24-44.28l117.87-68.5c21.04-12.23,55.27-12.23,76.45,0l118.64,68.49Z"/>
      </g>
      <path class="cls-3" d="M618.88,313.5c-.01.27-.03.54-.06.81-.02.24-.06.47-.09.71-.04.27-.08.54-.13.81-.04.24-.1.48-.15.72-.06.26-.12.53-.19.79-.06.24-.14.48-.21.72-.08.26-.17.52-.26.78-.08.23-.17.47-.26.7-.11.27-.22.55-.34.82-.1.23-.21.46-.32.68-.13.27-.27.54-.42.81-.12.22-.24.44-.37.66-.19.32-.39.64-.59.96-.12.19-.25.39-.38.58-.24.35-.5.7-.76,1.04-.12.15-.22.31-.34.46-.44.55-.91,1.1-1.4,1.64-.13.14-.26.27-.39.41-.39.41-.8.82-1.23,1.22-.19.18-.39.37-.59.55-.25.23-.51.45-.78.68-.24.21-.49.42-.75.62-.28.22-.56.44-.85.66-.26.2-.53.4-.81.6-.3.22-.6.43-.91.64-.28.2-.57.39-.86.58-.32.21-.65.42-.98.62-.41.26-.82.51-1.25.76l-117.86,68.5c-.81.47-1.64.92-2.49,1.35-.24.12-.49.25-.74.37-.66.33-1.33.64-2.01.94-.23.1-.45.21-.68.31-.88.38-1.78.75-2.7,1.1-.16.06-.33.12-.49.18-.77.29-1.55.56-2.34.82-.33.11-.65.21-.98.32-.44.14-.87.27-1.32.4-.37.11-.74.22-1.12.32-.45.12-.9.24-1.35.36-.38.1-.75.19-1.13.29-.46.11-.92.21-1.38.32-.38.09-.76.17-1.15.25-.47.1-.94.19-1.41.28-.37.07-.73.14-1.1.21-1.01.18-2.03.34-3.06.49-.15.02-.3.04-.44.06-.89.12-1.79.23-2.69.32-.34.04-.69.07-1.03.1-.58.05-1.16.1-1.74.14-.36.03-.73.05-1.09.08-.61.04-1.22.07-1.82.09-.34.01-.68.03-1.02.04-.53.02-1.05.02-1.58.03-.37,0-.74.01-1.11.02-.57,0-1.13,0-1.7-.02-.33,0-.66,0-.99-.01-.52-.01-1.04-.04-1.55-.06-.36-.02-.72-.03-1.08-.04-.56-.03-1.11-.07-1.67-.11-.32-.02-.63-.04-.95-.07-.71-.06-1.41-.13-2.12-.21-.16-.02-.32-.03-.48-.05-.86-.1-1.73-.21-2.58-.33-.16-.02-.31-.05-.47-.07-.72-.11-1.44-.22-2.15-.34-.31-.05-.61-.11-.91-.17-.56-.1-1.12-.2-1.67-.32-.29-.06-.58-.13-.87-.19-.61-.13-1.21-.27-1.81-.41-.34-.08-.67-.17-1.01-.25-.55-.14-1.09-.28-1.64-.43-.31-.09-.62-.17-.93-.26-.86-.25-1.71-.51-2.56-.79-.15-.05-.3-.09-.45-.14-.97-.33-1.92-.68-2.86-1.04-.2-.08-.39-.16-.59-.24-1.22-.49-2.42-1.01-3.58-1.56-.12-.06-.23-.12-.35-.17-1.22-.59-2.41-1.21-3.55-1.87l-118.63-68.49c-10.66-6.15-15.98-14.23-15.95-22.29l-.05,18.88c-.02,8.06,5.3,16.14,15.95,22.29l118.63,68.49c1.14.66,2.33,1.28,3.55,1.87.12.06.23.12.35.17,1.16.55,2.36,1.07,3.58,1.56.11.04.21.09.32.14.09.04.19.07.28.1.94.37,1.89.72,2.86,1.04.15.05.3.1.45.14.84.28,1.69.54,2.56.79.14.04.28.09.43.13.17.05.34.09.5.13.54.15,1.09.29,1.63.43.34.09.67.17,1.01.25.6.14,1.2.28,1.81.41.23.05.46.11.69.16.06.01.13.02.19.04.55.11,1.1.21,1.65.31.31.06.62.12.94.17.71.12,1.42.23,2.14.34.15.02.3.05.45.07,0,0,.02,0,.02,0,.86.12,1.72.23,2.58.33.16.02.32.03.47.05.71.08,1.42.15,2.13.21.02,0,.03,0,.05,0,.29.02.58.04.87.06.57.04,1.13.08,1.7.12.36.02.73.03,1.09.05.51.02,1.03.05,1.54.06.04,0,.08,0,.13,0,.29,0,.59,0,.88,0,.56,0,1.12.02,1.68.02.37,0,.74-.01,1.11-.02.52,0,1.05-.01,1.57-.03.1,0,.19,0,.29,0,.25,0,.49-.03.74-.04.6-.03,1.21-.05,1.81-.09.37-.02.73-.05,1.1-.08.58-.04,1.16-.09,1.74-.14.2-.02.41-.03.61-.05.14-.01.28-.04.42-.05.9-.09,1.79-.2,2.68-.32.15-.02.3-.04.45-.06,1.03-.14,2.04-.31,3.06-.49.09-.02.19-.03.28-.05.27-.05.53-.11.8-.16.47-.09.95-.18,1.42-.28.38-.08.76-.16,1.14-.25.46-.1.92-.21,1.38-.32.38-.09.76-.19,1.13-.29.45-.12.9-.24,1.35-.36.38-.1.75-.21,1.12-.32.44-.13.88-.26,1.31-.4.19-.06.39-.11.58-.18.14-.04.27-.1.41-.14.79-.26,1.57-.53,2.34-.82.16-.06.33-.12.49-.18.91-.35,1.81-.72,2.7-1.1.23-.1.46-.21.68-.31.68-.3,1.35-.62,2.01-.95.25-.12.49-.24.73-.37.85-.43,1.68-.88,2.49-1.35l117.86-68.5c.22-.13.44-.26.66-.39.2-.12.39-.25.59-.38.33-.21.66-.41.98-.62.29-.19.58-.39.86-.58.31-.21.61-.43.91-.64.27-.2.54-.4.8-.6.29-.22.57-.44.85-.66.25-.2.5-.41.74-.62.27-.23.53-.45.78-.68.1-.09.22-.19.32-.28.1-.09.18-.18.27-.27.43-.4.83-.81,1.22-1.22.13-.14.27-.27.4-.41.5-.54.96-1.08,1.4-1.64.02-.02.04-.05.06-.07.1-.13.18-.26.28-.39.26-.35.52-.69.76-1.04.13-.19.25-.39.38-.58.21-.32.41-.64.59-.96.05-.09.11-.17.16-.26.07-.13.13-.26.2-.39.15-.27.29-.54.42-.81.11-.23.22-.46.32-.68.12-.27.24-.55.35-.82.05-.12.11-.24.15-.37.04-.11.07-.22.11-.33.09-.26.18-.52.26-.78.07-.24.14-.47.21-.71.07-.26.13-.53.19-.79.03-.14.08-.28.1-.43.02-.1.03-.19.05-.29.05-.27.09-.54.13-.81.03-.24.07-.47.09-.71.03-.27.04-.54.06-.81,0-.16.03-.32.03-.48,0-.16,0-.32,0-.47l.05-18.88c0,.32-.02.64-.04.95Z"/>
      <path class="cls-2" d="M618.9,305.24c-.01.27-.03.54-.06.81-.02.24-.06.47-.09.71-.04.27-.08.54-.13.81-.04.24-.1.48-.15.72-.06.26-.12.53-.19.79-.06.24-.14.48-.21.72-.08.26-.17.52-.26.78-.08.23-.17.47-.26.7-.11.27-.22.55-.34.82-.1.23-.21.46-.32.68-.13.27-.27.54-.42.81-.12.22-.24.44-.37.66-.19.32-.39.64-.59.96-.12.19-.25.39-.38.58-.24.35-.5.7-.76,1.04-.12.15-.22.31-.34.46-.44.55-.91,1.1-1.4,1.64-.13.14-.26.27-.39.41-.39.41-.8.82-1.23,1.22-.19.18-.39.37-.59.55-.25.23-.51.45-.78.68-.24.21-.49.42-.75.62-.28.22-.56.44-.85.66-.26.2-.53.4-.81.6-.3.22-.6.43-.91.64-.28.2-.57.39-.86.58-.32.21-.65.42-.98.62-.41.26-.82.51-1.25.76l-117.87,68.5c-.81.47-1.64.92-2.49,1.35-.24.12-.49.25-.74.37-.66.33-1.33.64-2.01.94-.23.1-.45.21-.68.31-.88.38-1.78.75-2.7,1.1-.16.06-.33.12-.49.18-.77.29-1.55.56-2.34.82-.33.11-.65.21-.98.32-.44.14-.87.27-1.32.4-.37.11-.74.22-1.12.32-.45.12-.9.24-1.35.36-.38.1-.75.19-1.13.29-.46.11-.92.21-1.38.32-.38.09-.76.17-1.15.25-.47.1-.94.19-1.41.28-.37.07-.73.14-1.1.21-1.01.18-2.03.34-3.06.49-.15.02-.3.04-.44.06-.89.12-1.79.23-2.69.32-.34.04-.69.07-1.03.1-.58.05-1.16.1-1.74.14-.36.03-.73.05-1.09.08-.61.04-1.22.07-1.82.09-.34.01-.68.03-1.02.04-.53.02-1.05.02-1.58.03-.37,0-.74.01-1.11.02-.57,0-1.13,0-1.7-.02-.33,0-.66,0-.99-.01-.52-.01-1.04-.04-1.55-.06-.36-.02-.72-.03-1.08-.04-.56-.03-1.11-.07-1.67-.11-.32-.02-.63-.04-.95-.07-.71-.06-1.41-.13-2.12-.21-.16-.02-.32-.03-.48-.05-.86-.1-1.73-.21-2.58-.33-.16-.02-.31-.05-.47-.07-.72-.11-1.44-.22-2.15-.34-.31-.05-.61-.11-.91-.17-.56-.1-1.12-.2-1.67-.32-.29-.06-.58-.13-.87-.19-.61-.13-1.21-.27-1.81-.41-.34-.08-.67-.17-1.01-.25-.55-.14-1.09-.28-1.64-.43-.31-.09-.62-.17-.93-.26-.86-.25-1.71-.51-2.56-.79-.15-.05-.3-.09-.45-.14-.97-.33-1.92-.68-2.86-1.04-.2-.08-.39-.16-.59-.24-1.22-.49-2.42-1.01-3.58-1.56-.12-.06-.23-.12-.35-.17-1.22-.59-2.41-1.21-3.55-1.87l-118.64-68.49c-10.66-6.15-15.98-14.23-15.96-22.29l-.05,18.88c-.02,8.06,5.3,16.14,15.96,22.29l118.64,68.49c1.14.66,2.33,1.28,3.55,1.87.12.06.23.12.35.17,1.16.55,2.36,1.07,3.58,1.56.11.04.21.09.32.14.09.04.19.07.28.1.94.37,1.89.72,2.86,1.04.15.05.3.1.45.14.84.28,1.69.54,2.56.79.14.04.28.09.43.13.17.05.34.09.5.13.54.15,1.09.29,1.63.43.34.09.67.17,1.01.25.6.14,1.2.28,1.81.41.23.05.46.11.69.16.06.01.13.02.19.04.55.11,1.1.21,1.65.31.31.06.62.12.94.17.71.12,1.42.23,2.14.34.15.02.3.05.45.07,0,0,.02,0,.02,0,.86.12,1.72.23,2.58.33.16.02.32.03.47.05.71.08,1.42.15,2.13.21.02,0,.03,0,.05,0,.29.02.58.04.87.06.57.04,1.13.08,1.7.12.36.02.73.03,1.09.05.51.02,1.03.05,1.54.06.04,0,.08,0,.13,0,.29,0,.59,0,.88,0,.56,0,1.12.02,1.68.02.37,0,.74-.01,1.11-.02.52,0,1.05-.01,1.57-.03.1,0,.19,0,.29,0,.25,0,.49-.03.74-.04.6-.03,1.21-.05,1.81-.09.37-.02.73-.05,1.1-.08.58-.04,1.16-.09,1.74-.14.2-.02.41-.03.61-.05.14-.01.28-.04.42-.05.9-.09,1.79-.2,2.68-.32.15-.02.3-.04.45-.06,1.03-.14,2.04-.31,3.06-.49.09-.02.19-.03.28-.05.27-.05.53-.11.8-.16.47-.09.95-.18,1.42-.28.38-.08.76-.16,1.14-.25.46-.1.92-.21,1.38-.32.38-.09.76-.19,1.13-.29.45-.12.9-.24,1.35-.36.38-.1.75-.21,1.12-.32.44-.13.88-.26,1.31-.4.19-.06.39-.11.58-.18.14-.04.27-.1.41-.14.79-.26,1.57-.53,2.34-.82.16-.06.33-.12.49-.18.91-.35,1.81-.72,2.7-1.1.23-.1.46-.21.68-.31.68-.3,1.35-.62,2.01-.95.25-.12.49-.24.73-.37.85-.43,1.68-.88,2.49-1.35l117.87-68.5c.22-.13.44-.26.66-.39.2-.12.39-.25.59-.38.33-.21.66-.41.98-.62.29-.19.58-.39.86-.58.31-.21.62-.43.91-.64.27-.2.54-.4.8-.6.29-.22.57-.44.85-.66.25-.2.5-.41.74-.62.27-.23.53-.45.78-.68.1-.09.22-.19.32-.28.1-.09.18-.18.27-.27.43-.4.83-.81,1.22-1.22.13-.14.27-.27.4-.41.5-.54.96-1.08,1.4-1.64.02-.02.04-.05.06-.07.1-.13.18-.26.28-.39.26-.35.52-.69.76-1.04.13-.19.25-.39.38-.58.21-.32.41-.64.59-.96.05-.09.11-.17.16-.26.07-.13.13-.26.2-.39.15-.27.29-.54.42-.81.11-.23.22-.46.32-.68.12-.27.24-.55.35-.82.05-.12.11-.24.15-.37.04-.11.07-.22.11-.33.09-.26.18-.52.26-.78.07-.24.14-.47.21-.71.07-.26.13-.53.19-.79.03-.14.08-.28.1-.43.02-.1.03-.19.05-.29.05-.27.09-.54.13-.81.03-.24.07-.47.09-.71.03-.27.04-.54.06-.81,0-.16.03-.32.03-.48,0-.16,0-.32,0-.47l.05-18.88c0,.32-.02.64-.04.95Z"/>
      <path class="cls-2" d="M618.9,331.02c-.01.27-.03.54-.06.81-.02.24-.06.47-.09.71-.04.27-.08.54-.13.81-.04.24-.1.48-.15.72-.06.26-.12.53-.19.79-.06.24-.14.48-.21.72-.08.26-.17.52-.26.78-.08.23-.17.47-.26.7-.11.27-.22.55-.34.82-.1.23-.21.46-.32.68-.13.27-.27.54-.42.81-.12.22-.24.44-.37.66-.19.32-.39.64-.59.96-.12.19-.25.39-.38.58-.24.35-.5.7-.76,1.04-.12.15-.22.31-.34.46-.44.55-.91,1.1-1.4,1.64-.13.14-.26.27-.39.41-.39.41-.8.82-1.23,1.22-.19.18-.39.37-.59.55-.25.23-.51.45-.78.68-.24.21-.49.42-.75.62-.28.22-.56.44-.85.66-.26.2-.53.4-.81.6-.3.22-.6.43-.91.64-.28.2-.57.39-.86.58-.32.21-.65.42-.98.62-.41.26-.82.51-1.25.76l-117.87,68.5c-.81.47-1.64.92-2.49,1.35-.24.12-.49.25-.74.37-.66.33-1.33.64-2.01.94-.23.1-.45.21-.68.31-.88.38-1.78.75-2.7,1.1-.16.06-.33.12-.49.18-.77.29-1.55.56-2.34.82-.33.11-.65.21-.98.32-.44.14-.87.27-1.32.4-.37.11-.74.22-1.12.32-.45.12-.9.24-1.35.36-.38.1-.75.19-1.13.29-.46.11-.92.21-1.38.32-.38.09-.76.17-1.15.25-.47.1-.94.19-1.41.28-.37.07-.73.14-1.1.21-1.01.18-2.03.34-3.06.49-.15.02-.3.04-.44.06-.89.12-1.79.23-2.69.32-.34.04-.69.07-1.03.1-.58.05-1.16.1-1.74.14-.36.03-.73.05-1.09.08-.61.04-1.22.07-1.82.09-.34.01-.68.03-1.02.04-.53.02-1.05.02-1.58.03-.37,0-.74.01-1.11.02-.57,0-1.13,0-1.7-.02-.33,0-.66,0-.99-.01-.52-.01-1.04-.04-1.55-.06-.36-.02-.72-.03-1.08-.04-.56-.03-1.11-.07-1.67-.11-.32-.02-.63-.04-.95-.07-.71-.06-1.41-.13-2.12-.21-.16-.02-.32-.03-.48-.05-.86-.1-1.73-.21-2.58-.33-.16-.02-.31-.05-.47-.07-.72-.11-1.44-.22-2.15-.34-.31-.05-.61-.11-.91-.17-.56-.1-1.12-.2-1.67-.32-.29-.06-.58-.13-.87-.19-.61-.13-1.21-.27-1.81-.41-.34-.08-.67-.17-1.01-.25-.55-.14-1.09-.28-1.64-.43-.31-.09-.62-.17-.93-.26-.86-.25-1.71-.51-2.56-.79-.15-.05-.3-.09-.45-.14-.97-.33-1.92-.68-2.86-1.04-.2-.08-.39-.16-.59-.24-1.22-.49-2.42-1.01-3.58-1.56-.12-.06-.23-.12-.35-.17-1.22-.59-2.41-1.21-3.55-1.87l-118.64-68.49c-10.66-6.15-15.98-14.23-15.96-22.29l-.05,18.88c-.02,8.06,5.3,16.14,15.96,22.29l118.64,68.49c1.14.66,2.33,1.28,3.55,1.87.12.06.23.12.35.17,1.16.55,2.36,1.07,3.58,1.56.11.04.21.09.32.14.09.04.19.07.28.1.94.37,1.89.72,2.86,1.04.15.05.3.1.45.14.84.28,1.69.54,2.56.79.14.04.28.09.43.13.17.05.34.09.5.13.54.15,1.09.29,1.63.43.34.09.67.17,1.01.25.6.14,1.2.28,1.81.41.23.05.46.11.69.16.06.01.13.02.19.04.55.11,1.1.21,1.65.31.31.06.62.12.94.17.71.12,1.42.23,2.14.34.15.02.3.05.45.07,0,0,.02,0,.02,0,.86.12,1.72.23,2.58.33.16.02.32.03.47.05.71.08,1.42.15,2.13.21.02,0,.03,0,.05,0,.29.02.58.04.87.06.57.04,1.13.08,1.7.12.36.02.73.03,1.09.05.51.02,1.03.05,1.54.06.04,0,.08,0,.13,0,.29,0,.59,0,.88,0,.56,0,1.12.02,1.68.02.37,0,.74-.01,1.11-.02.52,0,1.05-.01,1.57-.03.1,0,.19,0,.29,0,.25,0,.49-.03.74-.04.6-.03,1.21-.05,1.81-.09.37-.02.73-.05,1.1-.08.58-.04,1.16-.09,1.74-.14.2-.02.41-.03.61-.05.14-.01.28-.04.42-.05.9-.09,1.79-.2,2.68-.32.15-.02.3-.04.45-.06,1.03-.14,2.04-.31,3.06-.49.09-.02.19-.03.28-.05.27-.05.53-.11.8-.16.47-.09.95-.18,1.42-.28.38-.08.76-.16,1.14-.25.46-.1.92-.21,1.38-.32.38-.09.76-.19,1.13-.29.45-.12.9-.24,1.35-.36.38-.1.75-.21,1.12-.32.44-.13.88-.26,1.31-.4.19-.06.39-.11.58-.18.14-.04.27-.1.41-.14.79-.26,1.57-.53,2.34-.82.16-.06.33-.12.49-.18.91-.35,1.81-.72,2.7-1.1.23-.1.46-.21.68-.31.68-.3,1.35-.62,2.01-.95.25-.12.49-.24.73-.37.85-.43,1.68-.88,2.49-1.35l117.87-68.5c.22-.13.44-.26.66-.39.2-.12.39-.25.59-.38.33-.21.66-.41.98-.62.29-.19.58-.39.86-.58.31-.21.62-.43.91-.64.27-.2.54-.4.8-.6.29-.22.57-.44.85-.66.25-.2.5-.41.74-.62.27-.23.53-.45.78-.68.1-.09.22-.19.32-.28.1-.09.18-.18.27-.27.43-.4.83-.81,1.22-1.22.13-.14.27-.27.4-.41.5-.54.96-1.08,1.4-1.64.02-.02.04-.05.06-.07.1-.13.18-.26.28-.39.26-.35.52-.69.76-1.04.13-.19.25-.39.38-.58.21-.32.41-.64.59-.96.05-.09.11-.17.16-.26.07-.13.13-.26.2-.39.15-.27.29-.54.42-.81.11-.23.22-.46.32-.68.12-.27.24-.55.35-.82.05-.12.11-.24.15-.37.04-.11.07-.22.11-.33.09-.26.18-.52.26-.78.07-.24.14-.47.21-.71.07-.26.13-.53.19-.79.03-.14.08-.28.1-.43.02-.1.03-.19.05-.29.05-.27.09-.54.13-.81.03-.24.07-.47.09-.71.03-.27.04-.54.06-.81,0-.16.03-.32.03-.48,0-.16,0-.32,0-.47l.05-18.88c0,.32-.02.64-.04.95Z"/>
      <path class="cls-14" d="M602.98,282c21.18,12.23,21.29,32.05.25,44.28l-117.87,68.5c-21.04,12.23-55.27,12.23-76.45,0l-118.64-68.49c-21.18-12.23-21.29-32.06-.24-44.28l117.87-68.5c21.04-12.23,55.27-12.23,76.45,0l118.64,68.49Z"/>
      <path class="cls-4" d="M586.28,284.36c18.92,10.92,19.02,28.63.22,39.55l-105.27,61.18c-18.8,10.92-49.37,10.93-68.29,0l-105.96-61.18c-18.92-10.92-19.01-28.63-.22-39.55l105.27-61.18c18.8-10.92,49.36-10.92,68.28,0l105.96,61.18Z"/>
      <g class="cls-29">
        <path class="cls-3" d="M587.46,317.75h0c-1.92,1.9-4.28,3.68-7.07,5.31l-14.2,8.25-23.37,13.58-23.37,13.58-23.37,13.58-16.37,9.52c-2.67,1.55-5.6,2.87-8.7,3.95-14.93,5.27-33.95,5.17-48.78-.32-2.77-1.02-5.4-2.23-7.83-3.63l-17.25-9.96-23.37-13.49-23.37-13.49-23.37-13.48-13.98-8.08c-2.89-1.67-5.33-3.5-7.3-5.45-10.35-10.24-8.01-23.6,7.09-32.38l100.68-58.51c17.98-10.45,47.21-10.45,65.3,0l101.34,58.51c15.28,8.81,17.73,22.25,7.29,32.52Z"/>
      </g>
      <g class="cls-28">
        <path class="cls-3" d="M587.46,317.75h0c-1.92,1.9-4.28,3.68-7.07,5.31l-14.2,8.25-23.37,13.58-23.37,13.58-23.37,13.58-16.37,9.52c-2.67,1.55-5.6,2.87-8.7,3.95-14.93,5.27-33.95,5.17-48.78-.32-2.77-1.02-5.4-2.23-7.83-3.63l-17.25-9.96-23.37-13.49-23.37-13.49-23.37-13.48-13.98-8.08c-2.89-1.67-5.33-3.5-7.3-5.45,1.93-1.9,4.29-3.68,7.09-5.31l100.68-58.51c17.98-10.45,47.21-10.45,65.3,0l101.34,58.51c2.89,1.67,5.32,3.5,7.29,5.45Z"/>
      </g>
      <g class="cls-30">
        <path class="cls-3" d="M566.2,331.3l-23.37,13.58-23.37,13.58-23.37,13.58-16.37,9.52c-2.67,1.55-5.6,2.87-8.7,3.95-14.93,5.27-33.95,5.17-48.78-.32-2.77-1.02-5.4-2.23-7.83-3.63l-17.25-9.96-23.37-13.49-23.37-13.49-23.37-13.48,86.49-50.27c17.98-10.45,47.21-10.45,65.3,0l87.36,50.44Z"/>
      </g>
      <g class="cls-32">
        <path class="cls-3" d="M542.83,344.88l-23.37,13.58-23.37,13.58-16.37,9.52c-2.67,1.55-5.6,2.87-8.7,3.95-14.93,5.27-33.95,5.17-48.78-.32-2.77-1.02-5.4-2.23-7.83-3.63l-17.25-9.96-23.37-13.49-23.37-13.49,63.12-36.68c17.98-10.45,47.21-10.45,65.3,0l63.99,36.95Z"/>
      </g>
      <g class="cls-31">
        <path class="cls-3" d="M519.46,358.46l-23.37,13.58-16.37,9.52c-2.67,1.55-5.6,2.87-8.7,3.95-14.93,5.27-33.95,5.17-48.78-.32-2.77-1.02-5.4-2.23-7.83-3.63l-17.25-9.96-23.37-13.49,39.75-23.1c17.98-10.45,47.21-10.45,65.3,0l40.62,23.46Z"/>
      </g>
      <g class="cls-33">
        <path class="cls-3" d="M496.09,372.04l-16.37,9.52c-2.67,1.55-5.6,2.87-8.7,3.95-14.93,5.27-33.95,5.17-48.78-.32-2.77-1.02-5.4-2.23-7.83-3.63l-17.25-9.96,16.38-9.52c17.98-10.45,47.21-10.45,65.3,0l17.25,9.96Z"/>
      </g>
      <path class="cls-3" d="M471.02,385.51c-14.93,5.27-33.95,5.17-48.78-.32,14.94-5.27,33.96-5.17,48.78.32Z"/>
      <g>
        <polygon class="cls-11" points="380.28 414.62 350.16 397.23 327 383.86 320.66 388.51 357.11 409.55 386.58 426.56 380.28 414.62"/>
        <polygon class="cls-11" points="350.16 360.85 320.69 343.84 326.98 355.77 357.1 373.17 380.26 386.54 386.6 381.89 350.16 360.85"/>
      </g>
      <g>
        <polygon class="cls-11" points="513.88 414.29 544.01 396.9 567.17 383.53 573.5 388.17 537.1 409.33 507.39 426.59 513.88 414.29"/>
        <polygon class="cls-11" points="543.95 360.39 573.48 343.23 567.19 355.16 537.06 372.83 513.91 386.2 507.55 381.54 543.95 360.39"/>
      </g>
      <g class="cls-33">
        <path class="cls-12" d="M347.23,379.96c.81.47,1.47,1.61,1.47,2.55s-.66,1.32-1.48.85-1.48-1.62-1.47-2.55.66-1.32,1.48-.85Z"/>
        <path class="cls-12" d="M351.49,382.42c.82.47,1.48,1.62,1.47,2.55s-.66,1.32-1.48.85-1.47-1.61-1.47-2.55.66-1.32,1.48-.85Z"/>
        <path class="cls-12" d="M355.76,384.88c.82.47,1.48,1.62,1.47,2.55s-.66,1.32-1.48.85-1.47-1.61-1.47-2.55.66-1.32,1.48-.85Z"/>
        <path class="cls-12" d="M360.02,387.34c.81.47,1.48,1.62,1.47,2.55s-.67,1.31-1.48.85-1.48-1.62-1.47-2.55.67-1.31,1.48-.85Z"/>
      </g>
      <g class="cls-33">
        <path class="cls-12" d="M546.09,379.96c-.81.47-1.47,1.61-1.47,2.55s.66,1.32,1.48.85,1.48-1.62,1.47-2.55-.66-1.32-1.48-.85Z"/>
        <path class="cls-12" d="M541.83,382.42c-.82.47-1.48,1.62-1.47,2.55s.66,1.32,1.48.85,1.47-1.61,1.47-2.55-.66-1.32-1.48-.85Z"/>
        <path class="cls-12" d="M537.57,384.88c-.82.47-1.48,1.62-1.47,2.55s.66,1.32,1.48.85,1.47-1.61,1.47-2.55-.66-1.32-1.48-.85Z"/>
        <path class="cls-12" d="M533.3,387.34c-.81.47-1.48,1.62-1.47,2.55s.67,1.31,1.48.85,1.48-1.62,1.47-2.55-.67-1.31-1.48-.85Z"/>
      </g>
    </g>
    <path class="cls-21" d="M594.37,128.29s0,.07,0,.11l.04-15.44c0,.2-.01.39-.03.59.29-7.1-4.25-14.26-13.64-19.68l-101.58-58.65c-18.14-10.47-47.44-10.47-65.46,0l-100.92,58.65c-8.98,5.22-13.46,12.05-13.45,18.9,0-.02,0-.04,0-.06l-.05,16.16c0,.33.02.66.04.99l-.04,13.52c0,.24.02.49.03.73l-.03,9.95c0,.33.02.66.04.99l-.04,13.52c0,.07,0,.15,0,.22v3.06c0,.33,0,.66.03.99l-.04,13.52c0,.24.02.49.03.73l-.03,9.95c0,.33.02.66.04.99l-.04,13.52c0,.22.02.43.03.65l-.03,8.88c0,.33.02.66.04.99l-.04,13.52c0,.24.02.49.03.73l-.03,9.95c0,.33.02.66.04.99l-.04,13.52c0,.08,0,.15,0,.22v3.06c0,.33,0,.66.03.99l-.04,13.52c0,.24.02.49.03.73l-.03,9.95c0,.33.02.66.04.99l-.04,13.52c-.02,6.9,4.54,13.82,13.66,19.09l101.58,58.65c.98.57,2,1.1,3.04,1.6.1.05.2.1.3.15,1,.47,2.02.92,3.07,1.34.09.04.18.08.27.12.08.03.16.06.24.09.8.31,1.62.61,2.45.89.13.04.26.08.38.12.72.24,1.45.46,2.19.68.12.04.24.08.36.11.14.04.29.07.43.11.46.13.93.25,1.4.37.29.07.57.15.86.22.51.12,1.03.24,1.55.35.2.04.39.09.59.13.05.01.11.02.16.03.47.1.94.18,1.41.27.27.05.53.1.8.15.61.1,1.22.2,1.83.29.13.02.26.04.39.06,0,0,.01,0,.02,0,.73.1,1.47.2,2.21.28.13.01.27.03.41.04.61.06,1.21.13,1.82.18.01,0,.03,0,.04,0,.25.02.5.03.75.05.48.04.97.07,1.45.1.31.02.62.03.93.04.44.02.88.04,1.32.05.04,0,.07,0,.11,0,.25,0,.5,0,.75,0,.48,0,.96.02,1.44.01.32,0,.63,0,.95-.01.45,0,.9-.01,1.35-.03.08,0,.17,0,.25,0,.21,0,.42-.02.63-.03.52-.02,1.04-.05,1.55-.08.31-.02.63-.04.94-.07.5-.04.99-.08,1.49-.12.17-.02.35-.03.52-.04.12-.01.24-.03.36-.04.77-.08,1.53-.17,2.3-.27.13-.02.26-.03.39-.05.88-.12,1.75-.26,2.62-.42.08-.01.16-.02.24-.04.23-.04.46-.09.69-.14.41-.08.81-.16,1.21-.24.33-.07.65-.14.98-.21.4-.09.79-.18,1.18-.27.33-.08.65-.16.97-.24.39-.1.77-.2,1.15-.31.32-.09.64-.18.96-.28.38-.11.75-.23,1.12-.34.16-.05.33-.1.49-.15.12-.04.23-.08.35-.12.68-.22,1.34-.46,2-.7.14-.05.28-.1.42-.15.78-.3,1.55-.61,2.31-.94.2-.09.39-.18.59-.26.58-.26,1.15-.53,1.72-.81.21-.1.42-.21.63-.31.72-.37,1.44-.75,2.13-1.16l100.92-58.65c.19-.11.38-.22.57-.33.17-.11.34-.22.51-.32.28-.18.57-.35.84-.53.25-.17.5-.33.74-.5.26-.18.53-.36.78-.55.23-.17.46-.34.69-.52.25-.19.49-.38.73-.57.22-.18.43-.35.64-.53.23-.19.45-.39.67-.58.09-.08.19-.16.27-.24.08-.08.15-.15.23-.23.36-.34.71-.69,1.05-1.04.11-.12.23-.23.34-.35.42-.46.83-.93,1.2-1.4.02-.02.04-.04.05-.06.09-.11.16-.22.24-.33.23-.3.45-.59.65-.89.11-.16.22-.33.32-.5.18-.27.35-.55.51-.82.04-.08.1-.15.14-.22.06-.11.11-.22.17-.34.12-.23.24-.46.36-.69.1-.19.19-.39.27-.59.1-.23.2-.47.3-.7.04-.1.09-.21.13-.31.04-.09.06-.19.09-.28.08-.22.15-.45.22-.67.06-.2.12-.41.18-.61.06-.23.11-.45.16-.68.03-.12.06-.24.09-.37.02-.08.02-.16.04-.25.04-.23.08-.46.11-.69.03-.2.06-.41.08-.61.02-.23.04-.46.05-.7,0-.14.03-.27.03-.41,0-.14,0-.27,0-.41l.05-16.16c0,.27-.02.54-.04.82,0,.04,0,.07,0,.11l.04-15.44c0,.25-.02.49-.03.74l.03-11.42c0,.27-.02.54-.04.82,0,.04,0,.07,0,.11l.04-15.44c0,.08,0,.15,0,.23v-3.51c0,.27-.01.54-.03.82,0,.04,0,.07,0,.11l.04-15.44c0,.25-.02.49-.03.74l.03-11.42c0,.27-.02.54-.04.82,0,.04,0,.07,0,.11l.04-15.44c0,.22-.02.44-.03.66l.03-10.19c0,.27-.02.54-.04.82,0,.04,0,.07,0,.11l.04-15.44c0,.25-.02.49-.03.74l.03-11.42c0,.27-.02.54-.04.82,0,.04,0,.07,0,.11l.04-15.44c0,.08,0,.15,0,.23v-3.51c0,.27-.01.54-.03.82,0,.04,0,.07,0,.11l.04-15.44c0,.25-.02.49-.03.74l.03-11.42c0,.27-.02.54-.04.82ZM305.29,125.92c.17.17.32.34.5.51-.17-.17-.33-.34-.5-.51ZM299.35,113.43c0,.21.01.42.03.63-.02-.21-.02-.42-.03-.63ZM299.46,114.72c.03.21.05.41.08.62-.03-.21-.05-.41-.08-.62ZM299.67,116.01c.04.21.08.42.13.62-.05-.21-.09-.41-.13-.62ZM300,117.29c.06.21.11.41.18.62-.07-.21-.12-.41-.18-.62ZM300.43,118.56c.08.2.15.41.23.61-.09-.2-.16-.41-.23-.61ZM300.97,119.82c.09.2.18.4.28.6-.1-.2-.19-.4-.28-.6ZM301.61,121.08c.11.2.21.4.33.59-.12-.2-.22-.39-.33-.59ZM302.37,122.32c.13.19.24.38.38.57-.13-.19-.25-.38-.38-.57ZM303.23,123.53c.14.19.27.38.42.56-.15-.19-.28-.37-.42-.56ZM304.2,124.73c.16.18.3.36.47.54-.16-.18-.31-.36-.47-.54ZM311.33,130.79c-.14-.09-.28-.19-.42-.28.14.09.28.19.42.28ZM309.78,129.75c-.18-.13-.35-.26-.53-.39.18.13.35.27.53.39ZM308.34,128.68c-.19-.15-.37-.31-.56-.46.19.15.37.31.56.46ZM307.01,127.57c-.19-.16-.36-.33-.54-.5.18.17.35.33.54.5ZM423.92,194.62h0c.13.04.26.08.39.13,0,0,0,0,0,0-.13-.04-.26-.08-.38-.12ZM426.96,195.56c.11.03.22.06.33.1h0c-.11-.03-.22-.06-.33-.1ZM431.58,196.69c.09.02.18.04.28.06,0,0,0,0,0,0-.09-.02-.18-.04-.27-.06ZM433.26,197.02c.1.02.2.04.31.06-.1-.02-.19-.04-.29-.05,0,0-.01,0-.02,0ZM435.88,197.46s.08.01.12.02c-.03,0-.07-.01-.1-.02,0,0-.01,0-.02,0ZM441.53,198.07s.02,0,.03,0c0,0,0,0,0,0,0,0-.02,0-.02,0ZM457.87,197.59s.02,0,.03,0c-.01,0-.02,0-.03,0h0ZM581.62,131.38c.14-.08.27-.17.41-.25,0,0,0,0,0,0-.13.08-.27.16-.4.25ZM583.2,130.38c.14-.09.28-.19.42-.28,0,0,0,0-.01,0-.13.09-.27.18-.41.28ZM584.78,129.25c.1-.08.2-.15.3-.23,0,0,0,0-.01,0-.1.07-.2.15-.29.22ZM586.1,128.22c.12-.1.24-.2.36-.3,0,0-.01.01-.02.02-.11.09-.23.19-.34.28ZM587.43,127.05c.06-.06.13-.12.19-.18,0,0,0,0,0,0-.06.06-.12.11-.18.17ZM588.66,125.84s0,0-.01,0c.12-.13.25-.25.36-.38,0,0,0,.01-.01.02-.11.12-.23.23-.34.35ZM591.42,122.37s.03-.05.05-.08c0,0,0,0,0,.01-.01.02-.03.05-.04.07ZM592.17,121.14c.05-.08.09-.17.14-.25,0,.01-.01.02-.02.03-.04.07-.08.15-.12.22ZM592.8,119.9c.05-.1.09-.2.13-.29,0,.01-.01.03-.02.04-.04.08-.08.17-.12.25ZM593.33,118.65c.04-.12.09-.23.13-.35,0,.02,0,.03-.02.05-.04.1-.08.2-.11.3ZM593.75,117.38c.04-.12.07-.25.11-.37,0,.02,0,.03-.01.05-.03.11-.06.21-.09.32ZM594.06,116.11c.03-.13.05-.26.08-.39,0,.02,0,.04,0,.05-.02.11-.05.22-.07.33ZM594.32,114.47c-.01.12-.03.24-.04.35.02-.14.04-.27.05-.41,0,.02,0,.04,0,.06Z"/>
    <g>
      <g>
        <g class="cls-26">
          <path class="cls-25" d="M562.14,500.29c2.55,1.47,2.56,3.86.03,5.33l-14.2,8.25c-2.53,1.47-6.66,1.47-9.21,0l-14.29-8.25c-2.55-1.47-2.56-3.86-.03-5.33l14.2-8.25c2.53-1.47,6.66-1.47,9.21,0l14.29,8.25Z"/>
        </g>
        <path class="cls-27" d="M566.06,499.74c3.08,1.78,3.1,4.66.04,6.44l-17.15,9.97c-3.06,1.78-8.04,1.78-11.13,0l-17.27-9.97c-3.08-1.78-3.1-4.67-.04-6.45l17.15-9.97c3.06-1.78,8.04-1.78,11.13,0l17.27,9.97Z"/>
        <g class="cls-26">
          <path class="cls-25" d="M558.07,500.87c2,1.15,2.01,3.03.02,4.18l-11.13,6.47c-1.99,1.15-5.22,1.15-7.22,0l-11.2-6.47c-2-1.15-2.01-3.03-.02-4.18l11.13-6.47c1.99-1.15,5.22-1.15,7.22,0l11.2,6.47Z"/>
        </g>
      </g>
      <g class="cls-34">
        <g>
          <path class="cls-25" d="M538.85,503.5c-.5-.29-.5-.76,0-1.05l3.47-2.02c.5-.29,1.31-.29,1.81,0l3.49,2.02c.5.29.5.76,0,1.05l-3.47,2.02c-.5.29-1.31.29-1.81,0l-3.49-2.02M550.02,502.16l-.05-.03-.51.3c-.24.14-.62.13-.86,0s-.24-.36,0-.5l.51-.3-1.36-.78-.51.3c-.24.14-.62.14-.86,0s-.24-.36,0-.5l.51-.3-1.36-.79-.51.3c-.24.14-.62.14-.86,0s-.24-.36,0-.5l.51-.3-.05-.03c-.77-.44-2-.45-2.77-.01l.12.07c.24.14.24.36,0,.5s-.62.14-.86,0l-.12-.07-1.43.83.12.07c.24.14.24.36,0,.5s-.62.14-.86,0l-.12-.07-1.28.74.12.07c.24.14.24.36,0,.5s-.62.14-.86,0l-.12-.07-.13.08c-.77.45-.77,1.17,0,1.62l.05.03.5-.29c.24-.14.62-.14.86,0s.24.36,0,.5l-.5.29,1.36.79.5-.29c.24-.14.62-.14.86,0s.24.36,0,.5l-.5.29,1.36.78.5-.29c.24-.14.62-.14.86,0s.24.36,0,.5l-.5.29.05.03c.77.45,2.03.45,2.8,0l.13-.08-.12-.07c-.24-.14-.24-.36,0-.5s.62-.14.86,0l.12.07,1.28-.74-.12-.07c-.24-.14-.24-.36,0-.5s.62-.14.86,0l.12.07,1.43-.83-.12-.07c-.24-.14-.24-.36,0-.5s.62-.14.86,0l.12.07c.75-.45.74-1.16-.03-1.61"/>
          <path class="cls-24" d="M547.61,502.45l-3.49-2.02c-.5-.29-1.31-.29-1.81,0l-3.47,2.02c-.5.29-.5.76,0,1.05l3.49,2.02c.5.29,1.31.29,1.81,0l3.47-2.02c.5-.29.5-.76,0-1.05"/>
          <path class="cls-25" d="M546.31,498.6c-.24-.14-.62-.14-.86,0l-.8.46-.51.3c-.24.14-.23.36,0,.5s.62.14.86,0l.51-.3.8-.46c.24-.14.24-.36,0-.5"/>
          <path class="cls-25" d="M548.54,499.89c-.24-.14-.62-.14-.86,0l-.8.46-.51.3c-.24.14-.23.36,0,.5s.62.14.86,0l.51-.3.8-.46c.24-.14.24-.36,0-.5"/>
          <path class="cls-25" d="M550.76,501.17c-.24-.14-.62-.14-.86,0l-.8.46-.51.3c-.24.14-.23.36,0,.5s.62.14.86,0l.51-.3.8-.46c.24-.14.23-.36,0-.5"/>
          <path class="cls-25" d="M537.86,503.52c-.24-.14-.62-.14-.86,0l-.5.29-.8.46c-.24.14-.23.36,0,.5s.62.14.86,0l.8-.46.5-.29c.24-.14.24-.36,0-.5"/>
          <path class="cls-25" d="M540.08,504.8c-.24-.14-.62-.14-.86,0l-.5.29-.8.46c-.24.14-.24.36,0,.5s.62.14.86,0l.8-.46.5-.29c.24-.14.24-.36,0-.5"/>
          <path class="cls-25" d="M542.3,506.09c-.24-.14-.62-.14-.86,0l-.5.29-.8.46c-.24.14-.24.36,0,.5s.62.14.86,0l.8-.46.5-.29c.24-.14.23-.36,0-.5"/>
          <path class="cls-25" d="M551.24,504.45l-1.19-.68-.12-.07c-.24-.14-.62-.14-.86,0s-.24.36,0,.5l.12.07,1.19.68c.24.14.62.14.86,0s.23-.36,0-.5"/>
          <path class="cls-25" d="M548.96,505.78l-1.19-.68-.12-.07c-.24-.14-.62-.14-.86,0s-.23.36,0,.5l.12.07,1.19.68c.24.14.62.14.86,0s.24-.36,0-.5"/>
          <path class="cls-25" d="M546.82,507.02l-1.19-.68-.12-.07c-.24-.14-.62-.14-.86,0s-.24.36,0,.5l.12.07,1.19.68c.24.14.62.14.86,0s.23-.36,0-.5"/>
          <path class="cls-25" d="M541.96,499.1l-.12-.07-1.19-.68c-.24-.14-.62-.14-.86,0s-.24.36,0,.5l1.19.68.12.07c.24.14.62.14.86,0s.23-.36,0-.5"/>
          <path class="cls-25" d="M539.67,500.42l-.12-.07-1.19-.68c-.24-.14-.62-.14-.86,0s-.23.36,0,.5l1.19.68.12.07c.24.14.62.14.86,0s.24-.36,0-.5"/>
          <path class="cls-25" d="M537.54,501.66l-.12-.07-1.19-.68c-.24-.14-.62-.14-.86,0s-.24.36,0,.5l1.19.68.12.07c.24.14.62.14.86,0s.23-.36,0-.5"/>
        </g>
      </g>
    </g>
    <g>
      <g>
        <g class="cls-26">
          <path class="cls-25" d="M361.33,489.69c2.55,1.47,2.56,3.86.03,5.33l-14.2,8.25c-2.53,1.47-6.66,1.47-9.21,0l-14.29-8.25c-2.55-1.47-2.56-3.86-.03-5.33l14.2-8.25c2.53-1.47,6.66-1.47,9.21,0l14.29,8.25Z"/>
        </g>
        <path class="cls-27" d="M365.25,489.14c3.08,1.78,3.1,4.66.04,6.44l-17.15,9.97c-3.06,1.78-8.04,1.78-11.13,0l-17.27-9.97c-3.08-1.78-3.1-4.67-.04-6.45l17.15-9.97c3.06-1.78,8.04-1.78,11.13,0l17.27,9.97Z"/>
        <g class="cls-26">
          <path class="cls-25" d="M357.25,490.27c2,1.15,2.01,3.03.02,4.18l-11.13,6.47c-1.99,1.15-5.22,1.15-7.22,0l-11.2-6.47c-2-1.15-2.01-3.03-.02-4.18l11.13-6.47c1.99-1.15,5.22-1.15,7.22,0l11.2,6.47Z"/>
        </g>
      </g>
      <g class="cls-34">
        <path class="cls-25" d="M347.18,490.32c-1.28-.74-3.04-.97-4.64-.72l-.07.02s-1.66.28-2.65,1.16l-.38.06-.07-.02-.03-.21c.84-.75,2.11-1.11,2.69-1.25-1.43-.7-3.52-.66-4.84.11-1.39.81-1.37,2.13.04,2.94l4.87,2.81c1.54.89,4.04.9,5.59,0,1.15-.67,1.42-1.66.81-2.49.26-.86-.21-1.77-1.33-2.41"/>
      </g>
    </g>
    <g>
      <g>
        <g class="cls-26">
          <path class="cls-25" d="M281.1,445.53c2.55,1.47,2.56,3.86.03,5.33l-14.2,8.25c-2.53,1.47-6.66,1.47-9.21,0l-14.29-8.25c-2.55-1.47-2.56-3.86-.03-5.33l14.2-8.25c2.53-1.47,6.66-1.47,9.21,0l14.29,8.25Z"/>
        </g>
        <path class="cls-27" d="M285.02,444.98c3.08,1.78,3.1,4.66.04,6.44l-17.15,9.97c-3.06,1.78-8.04,1.78-11.13,0l-17.27-9.97c-3.08-1.78-3.1-4.67-.04-6.45l17.15-9.97c3.06-1.78,8.04-1.78,11.13,0l17.27,9.97Z"/>
        <g class="cls-26">
          <path class="cls-25" d="M277.02,446.11c2,1.15,2.01,3.03.02,4.18l-11.13,6.47c-1.99,1.15-5.22,1.15-7.22,0l-11.2-6.47c-2-1.15-2.01-3.03-.02-4.18l11.13-6.47c1.99-1.15,5.22-1.15,7.22,0l11.2,6.47Z"/>
        </g>
      </g>
      <g class="cls-34">
        <g>
          <path class="cls-25" d="M261.99,447.92h3.5c.37,0,.71.09.96.23s.4.34.4.55c-.03.42-.6.75-1.32.77l-4.85-.02-.95-.22-.38-.55v-1.9c-.01-.43.56-.77,1.31-.77.37,0,.71.09.95.23s.39.33.37.54v1.13M267.66,445.09c-3-1.73-7.82-1.73-10.8,0-2.98,1.73-2.96,4.53.04,6.26s7.79,1.71,10.77-.02,2.96-4.53,0-6.24"/>
          <path class="cls-24" d="M266.45,448.15c-.24-.14-.58-.23-.96-.23h-3.5s0-1.13,0-1.13c.01-.21-.13-.4-.37-.54s-.58-.23-.95-.23c-.75,0-1.32.33-1.32.77v1.9s.39.55.39.55l.95.22,4.85.02c.72-.02,1.29-.35,1.32-.77,0-.22-.15-.41-.4-.55"/>
        </g>
      </g>
    </g>
    <g>
      <g>
        <g class="cls-26">
          <path class="cls-25" d="M650,442.33c2.55,1.47,2.56,3.86.03,5.33l-14.2,8.25c-2.53,1.47-6.66,1.47-9.21,0l-14.29-8.25c-2.55-1.47-2.56-3.86-.03-5.33l14.2-8.25c2.53-1.47,6.66-1.47,9.21,0l14.29,8.25Z"/>
        </g>
        <path class="cls-27" d="M653.92,441.78c3.08,1.78,3.1,4.66.04,6.44l-17.15,9.97c-3.06,1.78-8.04,1.78-11.13,0l-17.27-9.97c-3.08-1.78-3.1-4.67-.04-6.45l17.15-9.97c3.06-1.78,8.04-1.78,11.13,0l17.27,9.97Z"/>
        <g class="cls-26">
          <path class="cls-25" d="M645.92,442.91c2,1.15,2.01,3.03.02,4.18l-11.13,6.47c-1.99,1.15-5.22,1.15-7.22,0l-11.2-6.47c-2-1.15-2.01-3.03-.02-4.18l11.13-6.47c1.99-1.15,5.22-1.15,7.22,0l11.2,6.47Z"/>
        </g>
      </g>
      <g class="cls-34">
        <path class="cls-25" d="M628.87,440.99c.7-.4,1.66-.65,2.71-.65,2.12,0,3.83,1,3.83,2.23l-.04,5.13h-8.84c-2.12,0-3.83-.99-3.84-2.22,0-.62.44-1.17,1.14-1.57s1.66-.65,2.72-.66h1.17s0-.69,0-.69c0-.61.44-1.17,1.13-1.57"/>
      </g>
    </g>
    <g>
      <g class="cls-30">
        <path class="cls-24" d="M558.48,188.49l-84.87-48.99c-15.16-8.75-39.64-8.75-54.69,0l-84.32,48.99c-15.06,8.75-14.98,22.93.17,31.68l84.87,49c15.16,8.75,39.64,8.74,54.7,0l84.32-49c15.05-8.75,14.97-22.93-.19-31.68ZM352.15,205.94l3.07,1.77-1.77,3.08-3.08-1.78,1.78-3.07ZM360.34,230.97l-7.67-4.44,4.42-7.67,7.68,4.42-4.43,7.68ZM369.16,228.99l-4.25-2.45,2.45-4.24,4.25,2.44-2.45,4.25ZM378.11,238.94l-3.07-1.77,1.77-3.08,3.07,1.77-1.77,3.08ZM397.88,238.51l-3.07-1.78,1.77-3.07,3.08,1.77-1.78,3.08ZM408.36,254.3l-3.07-1.78,1.77-3.07,3.07,1.77-1.77,3.08ZM413.71,253.23l-3.07-1.77,1.77-3.07,3.08,1.77-1.78,3.07ZM469.6,264.72l-1.66-2.85,2.86-1.64,1.64,2.85-2.85,1.64ZM483.38,247.33l-2.45-4.25,4.25-2.44,2.45,4.24-4.25,2.45ZM489.32,247.73l-1.64-2.85,2.85-1.64,1.66,2.85-2.86,1.64ZM504.01,247.73l-1.64-2.85,2.85-1.64,1.66,2.85-2.86,1.64ZM509.66,233.22l-1.64-2.85,2.85-1.64,1.64,2.85-2.85,1.64ZM530.06,227.33l-1.66-2.85,2.86-1.64,1.64,2.85-2.85,1.64ZM531.33,222.34l-2.54-4.4,4.4-2.54,2.55,4.4-4.41,2.54ZM531.9,205.6l-64.18,37.3c-11.45,6.66-30.11,6.66-41.63,0l-64.61-37.3c-11.53-6.66-11.59-17.46-.13-24.12l64.18-37.3c11.46-6.67,30.09-6.67,41.63,0l64.61,37.3c11.52,6.66,11.59,17.45.13,24.12ZM544.58,224.52l-4.13-7.17,7.16-4.11,4.13,7.14-7.16,4.13Z"/>
      </g>
      <g class="cls-31">
        <path class="cls-25" d="M531.77,181.48c11.53,6.66,11.6,17.45.14,24.11l-64.19,37.3c-11.46,6.66-30.1,6.66-41.63,0l-64.61-37.3c-11.53-6.66-11.59-17.46-.13-24.12l64.19-37.3c11.46-6.66,30.1-6.66,41.63,0l64.61,37.3Z"/>
      </g>
    </g>
    <g>
      <polygon class="cls-22" points="342.83 232.93 342.83 330.47 347.28 333.51 347.28 235.56 342.83 232.93"/>
      <polygon class="cls-20" points="386.65 265.49 386.65 363.03 391.1 366.07 391.1 268.12 386.65 265.49"/>
      <polygon class="cls-18" points="360.6 278.73 360.6 334.69 363.15 336.44 363.15 280.24 360.6 278.73"/>
      <polygon class="cls-19" points="415.31 296.45 415.31 389.81 417.86 391.56 417.86 297.96 415.31 296.45"/>
    </g>
    <g>
      <polygon class="cls-10" points="548.43 232.93 548.43 330.47 543.99 333.51 543.99 235.56 548.43 232.93"/>
      <polygon class="cls-7" points="504.62 265.49 504.62 363.03 500.17 366.07 500.17 268.12 504.62 265.49"/>
      <polygon class="cls-8" points="530.66 278.73 530.66 334.69 528.11 336.44 528.11 280.24 530.66 278.73"/>
      <polygon class="cls-9" points="475.95 296.45 475.95 389.81 473.4 391.56 473.4 297.96 475.95 296.45"/>
    </g>
    <g class="cls-34">
      <g>
        <path class="cls-25" d="M422.87,217.79c-.16-.08-.32-.16-.47-.25.15.09.31.17.47.25M422.3,195.97c3.71-.47,7.43-.96,11.16-1.4.66-.08,1.24.04,1.64.27.49.28.7.74.42,1.24-1.12,2-2.42,3.97-3.64,5.94-.05.07-.1.13-.16.17-.11.07-.26.08-.51-.02-1.48-.59-2.86-1.23-4.09-1.95-2.04-1.18-3.7-2.54-4.84-4.16v-.1M442.44,197.23c.74-.45,1.91-.42,2.87.14.08.04.15.09.22.14,1.3,1.22,2.71,2.54,4.12,3.87.51.47.98.96,1.5,1.42.21.19.32.32.15.43-.08.05-.22.09-.43.13-4.36.85-8.76.93-13.23.29-.19-.03-.32-.06-.4-.11-.13-.08-.12-.19.02-.36,1.6-1.88,3.16-3.78,4.82-5.65.1-.12.23-.22.36-.3M423.09,184.77c.17-.1.38-.1.74.07,2.76,1.31,5.53,2.6,8.3,3.91.09.04.17.09.23.12.73.51.66,1.16-.04,1.55-.2.11-.44.2-.74.26-3.42.69-6.87,1.34-10.3,2.03-.31.06-.5.08-.62,0-.09-.05-.14-.14-.16-.29-.43-2.61.31-5.08,2.34-7.41.09-.1.16-.18.25-.24M440.57,189.37c.17-.1.34-.19.51-.28.85-.45,2.11-.18,3.18-.26.38-.03.63.05.83.16.12.07.22.15.32.23.09.07.19.15.3.22.07.04.14.07.22.1.08.11.23.2.38.29.03.02.07.04.1.06.05.03.1.05.15.08.28.16.51.34.4.62-.23.59,0,1.33-.73,1.76-.02.01-.05.03-.07.04-.79.41-1.84.85-2.92.8-.95-.04-2.09-.25-2.77-.64-.07-.04-.14-.09-.2-.13-.63-.47-.96-1.21-.91-1.81.04-.46.6-.89,1.2-1.24M451.8,194.36c.61-.36,1.4-.3,2.21-.25,3.3.23,6.61.47,9.92.67.34.02.55.06.67.13.16.09.13.25-.03.49-1.2,1.84-2.92,3.47-5.29,4.85-.34.2-.69.39-1.05.58-1.13.58-1.55.79-1.96.55-.24-.14-.48-.43-.86-.89-1.23-1.5-2.46-3-3.71-4.5-.42-.5-.73-.98-.08-1.49.06-.05.12-.09.18-.13M426.85,181.62c.17-.1.43-.23.78-.42,3.2-1.56,6.7-2.6,10.65-3.14.44-.06.71-.06.86.02.13.08.17.22.16.46-.06,1.93-.07,3.86-.09,5.8,0,.41-.06.8-.55,1.08-.11.06-.25.12-.41.18-.91.29-1.66.08-2.46-.22-2.63-1-5.29-1.97-7.93-2.95-.6-.23-.99-.34-1.16-.45-.18-.11-.13-.19.16-.36M453.88,188.09s.04-.02.06-.03c2.44-1.37,4.85-2.76,7.24-4.15.34-.19.61-.34.83-.21.06.03.12.09.17.17,2.53,2.29,3.74,4.7,3.65,7.33,0,.18-.03.31-.14.37s-.32.07-.68.02c-3.38-.5-6.78-.96-10.16-1.43-.49-.07-.91-.18-1.22-.36-.23-.13-.4-.3-.5-.51-.23-.5.16-.85.75-1.19M444.87,177.84c.14-.09.43-.02.68,0,4.19.3,7.99,1.17,11.37,2.66.13.06.23.12.35.18.25.11.44.2.56.26.2.12.21.19.01.31-.12.07-.31.15-.57.27-2.47,1.14-4.94,2.3-7.43,3.43-.56.26-1.1.56-1.91.56-.54,0-1.04-.13-1.41-.34-.3-.17-.51-.4-.56-.68-.42-2.11-.76-4.23-1.17-6.35-.03-.16,0-.25.08-.29M473.05,175.8c-.77-.44-2.19-.52-3.14-.15-.56.21-1,.5-1.39.79-.71.55-1.5,1.06-2.38,1.52-.29.15-.55.3-.86.44-1.02.47-2.44.55-3.17.17-4.86-2.55-10.57-3.9-17.06-4.17-.2,0-.54-.04-.61-.08,0,0-.01,0-.01-.01-.11-.53-1.13-.83-.96-1.45.16-.59.09-1.2.13-1.8.03-.58.3-1.14.13-1.72-.11-.36-.37-.66-.73-.86s-.79-.32-1.27-.33c-1.03,0-2.13.53-2.35,1.16-.17.45.04.88.24,1.31.38.84.66,1.69.66,2.56,0,1-.57,1.39-2.22,1.58-.94.11-1.86.23-2.78.39-4.86.85-9.06,2.31-12.47,4.52-.24.16-.42.41-1,.35-1.69-.19-3.06-.7-4.32-1.37-.99-.55-1.92-1.16-3.19-1.52-1.15-.33-2.43-.12-3,.47-.46.47-.29,1.06.42,1.47.11.06.23.12.36.17.6.24,1.24.44,1.85.67,1.16.43,2.36.84,3.47,1.3.15.06.29.13.41.2.85.49,1.22,1.22.84,1.61-3.13,3.33-4.14,6.87-3.09,10.62.04.12.17.35,0,.37-1.07.08-1.44.76-2.56.88-1.85.17-3.71.33-5.56.48-1.14.08-1.95.72-1.89,1.37.03.3.23.55.55.74.39.22.95.36,1.65.37.78.02,1.51-.1,2.23-.26,2-.44,3.9-1.07,6.23-.89.44.03.69.08.87.18.12.07.21.16.29.29,1.11,1.62,2.72,3.08,4.67,4.41.42.28.85.56,1.3.82,1.84,1.06,3.95,1.93,6.14,2.73.17.06.45.1.6.19.08.05.12.11.08.2-.3.54.05,1.12-.44,1.68-.63.73-1.3,1.45-2.07,2.14-.53.48-.72,1.02-.65,1.58.04.3.23.56.56.75.19.11.44.2.73.27.78.18,1.49.12,2.14-.2.46-.23.76-.48.89-.83.44-1.05.85-2.11,1.65-3.1.68-.85,1.93-1.18,3.47-.96,5.79.83,11.48.7,17.09-.45.51-.11,1.04-.54,1.72-.16.03.02.06.04.1.06.03.02.06.04.09.06.17.1.38.17.6.24.22.07.44.15.62.25.12.07.22.15.29.25.34.47.79.91,1.14,1.38.47.65.85,1.34,1.33,1.98.11.14.26.27.44.37.59.34,1.51.5,2.26.37.72-.13,1.25-.79,1.04-1.42-.16-.5-.55-.96-1.13-1.37-.98-.71-1.84-1.48-2.55-2.3-.75-.85-.47-1.47.86-2.01.31-.13.61-.27.9-.41,4.37-2.14,7.42-4.78,9.19-7.94.09-.19.02-.46.54-.53,1.36-.21,2.72-.32,4.11,0,1.01.22,2.05.37,3.04.61.72.17,1.42.17,2.13.1,1.07-.1,1.72-.47,1.85-1.09.09-.42-.12-.75-.55-1-.22-.13-.5-.23-.84-.32-.71-.19-1.48-.22-2.24-.21-1.47,0-2.92-.05-4.33-.26-.69-.1-1.24-.26-1.63-.49-.56-.32-.81-.77-.73-1.34.2-1.45-.12-2.88-.71-4.29-.84-1.96-2.28-3.77-4.17-5.46-.24-.21-.3-.37-.12-.68.41-.81,1.48-1.21,2.52-1.64,1.16-.5,2.44-.9,3.56-1.43,1.04-.5,1.11-1.31.34-1.85-.03-.02-.07-.05-.11-.07M480.59,170.05c-.11-.05-.22-.09-.34-.13.12.04.23.08.34.13M481.51,170.51c-.06-.04-.13-.07-.19-.11.07.04.13.07.19.11"/>
        <path class="cls-1" d="M444.42,174.32c.07.04.41.08.61.08,6.49.27,12.2,1.62,17.06,4.17.73.38,2.15.29,3.17-.17.31-.14.57-.29.86-.44.88-.46,1.67-.97,2.38-1.52.39-.29.83-.58,1.39-.79.95-.37,2.37-.29,3.14.15.04.02.07.04.11.07.78.53.71,1.35-.34,1.85-1.12.53-2.4.94-3.56,1.43-1.04.43-2.11.83-2.52,1.64-.18.31-.12.47.12.68,1.89,1.69,3.33,3.5,4.17,5.46.59,1.41.91,2.84.71,4.29-.08.57.17,1.02.73,1.34.39.23.94.39,1.63.49,1.42.2,2.87.26,4.33.26.76,0,1.53.03,2.24.21.33.09.61.19.84.32.43.25.64.58.55,1-.13.62-.78.99-1.85,1.09-.71.07-1.41.07-2.13-.1-.99-.24-2.03-.39-3.04-.61-1.39-.32-2.75-.2-4.11,0-.52.08-.44.34-.54.53-1.77,3.16-4.82,5.81-9.19,7.94-.29.14-.59.28-.9.41-1.33.54-1.61,1.17-.86,2.01.71.82,1.56,1.58,2.55,2.3.58.41.96.86,1.13,1.37.21.63-.32,1.29-1.04,1.42-.75.13-1.66-.03-2.26-.37-.18-.11-.34-.23-.44-.37-.48-.64-.86-1.33-1.33-1.98-.34-.47-.79-.91-1.14-1.38-.07-.1-.17-.18-.29-.25-.18-.11-.4-.18-.62-.25-.22-.07-.43-.14-.6-.24-.03-.02-.06-.04-.09-.06-.03-.02-.07-.04-.1-.06-.67-.39-1.2.05-1.72.16-5.61,1.15-11.3,1.28-17.09.45-1.53-.22-2.78.11-3.47.96-.8.99-1.21,2.05-1.65,3.1-.14.35-.44.6-.89.83-.65.32-1.36.38-2.14.2-.29-.07-.53-.16-.73-.27-.33-.19-.52-.45-.56-.75-.08-.56.12-1.11.65-1.58.77-.7,1.44-1.41,2.07-2.14.49-.56.14-1.14.44-1.68.04-.09,0-.15-.08-.2-.15-.09-.43-.13-.6-.19-2.2-.8-4.3-1.67-6.14-2.73-.45-.26-.88-.53-1.3-.82-1.95-1.34-3.55-2.79-4.67-4.41-.09-.13-.18-.23-.29-.29-.18-.1-.43-.15-.87-.18-2.33-.18-4.23.44-6.23.89-.72.16-1.45.28-2.23.26-.69-.01-1.26-.15-1.65-.37-.33-.19-.52-.44-.55-.74-.06-.65.74-1.29,1.89-1.37,1.85-.15,3.71-.31,5.56-.48,1.12-.12,1.49-.8,2.56-.88.17-.02.04-.24,0-.37-1.05-3.75-.03-7.29,3.09-10.62.38-.39,0-1.12-.84-1.61-.13-.07-.27-.14-.41-.2-1.12-.46-2.31-.87-3.47-1.3-.61-.23-1.25-.42-1.85-.67-.13-.05-.25-.11-.36-.17-.71-.41-.88-1-.42-1.47.56-.59,1.85-.81,3-.47,1.27.36,2.2.97,3.19,1.52,1.26.67,2.63,1.18,4.32,1.37.58.06.76-.19,1-.35,3.41-2.21,7.61-3.67,12.47-4.52.92-.17,1.85-.29,2.78-.39,1.65-.2,2.23-.58,2.22-1.58,0-.87-.27-1.72-.66-2.56-.2-.43-.42-.86-.24-1.31.22-.64,1.32-1.17,2.35-1.16.48,0,.92.12,1.27.33s.63.51.73.86c.17.58-.1,1.14-.13,1.72-.04.6.03,1.21-.13,1.8-.17.61.85.92.96,1.45,0,0,0,0,.01.01M481.51,170.51h0c-.06-.04-.13-.07-.19-.11-.23-.13-.47-.24-.72-.35-.11-.05-.22-.09-.34-.13-.16-.05-.32-.1-.5-.15-11.82-2.91-23.65-5.83-35.46-8.76-2.09-.52-4.07-.45-6.06.17-10.91,3.42-21.8,6.86-32.77,10.21-2.94.9-4.48,2.17-5,4.06-1.94,6.87-4,13.74-6.04,20.6-.51,1.69.18,3.14,2.15,4.44,8.52,5.59,17,11.21,25.48,16.82.11.08.23.15.35.22h0c.15.09.31.17.47.25,1.13.53,2.45.76,3.97.73,12.9-.28,25.81-.56,38.72-.85,2.61-.06,4.66-.74,6.17-1.98,7.11-5.75,14.19-11.51,21.37-17.24,1.74-1.38,2.11-2.78,1.34-4.38-3.45-7.03-6.87-14.06-10.3-21.1-.27-.56-.63-1.09-1.22-1.57l-1.07-.7c-.11-.07-.22-.13-.33-.2"/>
        <path class="cls-1" d="M445.32,197.37c-.97-.56-2.14-.6-2.87-.14-.14.08-.26.19-.36.3-1.65,1.87-3.21,3.77-4.82,5.65-.14.17-.16.28-.02.36.08.05.21.08.4.11,4.47.64,8.88.56,13.23-.29.21-.04.35-.08.43-.13.18-.11.07-.24-.15-.43-.53-.47-.99-.95-1.5-1.42-1.41-1.32-2.82-2.65-4.12-3.87-.07-.05-.15-.1-.22-.14"/>
        <path class="cls-1" d="M457.83,180.94c-.12-.07-.3-.15-.56-.26-.12-.06-.22-.12-.35-.18-3.38-1.49-7.18-2.36-11.37-2.66-.24-.02-.53-.08-.68,0-.08.05-.11.13-.08.29.41,2.12.75,4.24,1.17,6.35.05.27.26.5.56.68.37.21.87.33,1.41.34.8,0,1.35-.3,1.91-.56,2.49-1.13,4.96-2.28,7.43-3.43.26-.12.45-.2.57-.27.2-.12.19-.19-.01-.31"/>
        <path class="cls-1" d="M462.01,183.7c-.22-.13-.5.02-.83.21-2.39,1.39-4.8,2.78-7.24,4.15-.02.01-.04.02-.06.03-.59.34-.98.69-.75,1.19.1.21.27.38.5.51.31.18.74.29,1.22.36,3.39.47,6.78.94,10.16,1.43.36.06.57.05.68-.02s.14-.19.14-.37c.09-2.63-1.13-5.04-3.65-7.33-.05-.08-.11-.13-.17-.17"/>
        <path class="cls-1" d="M439.14,178.09c-.15-.09-.42-.09-.86-.02-3.95.54-7.45,1.58-10.65,3.14-.35.18-.61.32-.78.42-.29.17-.34.26-.16.36s.56.22,1.16.45c2.64.99,5.3,1.95,7.93,2.95.79.29,1.54.51,2.46.22.16-.05.3-.11.41-.18.49-.28.55-.67.55-1.08.02-1.94.02-3.87.09-5.8.01-.24-.03-.38-.16-.46"/>
        <path class="cls-1" d="M464.6,194.91c-.11-.07-.33-.1-.67-.13-3.31-.2-6.62-.44-9.92-.67-.81-.06-1.6-.11-2.21.25-.06.04-.12.08-.18.13-.65.52-.34.99.08,1.49,1.25,1.49,2.48,3,3.71,4.5.38.46.62.75.86.89.41.24.83.03,1.96-.55.36-.19.72-.38,1.05-.58,2.37-1.38,4.09-3.01,5.29-4.85.16-.24.2-.39.03-.49"/>
        <path class="cls-1" d="M432.36,188.86c-.06-.03-.14-.08-.23-.12-2.77-1.3-5.54-2.6-8.3-3.91-.36-.17-.57-.17-.74-.07-.09.05-.17.14-.25.24-2.03,2.33-2.77,4.81-2.34,7.41.03.15.08.24.16.29.12.07.31.06.62,0,3.43-.68,6.88-1.34,10.3-2.03.29-.06.54-.15.74-.26.7-.39.77-1.04.04-1.55"/>
        <path class="cls-1" d="M435.1,194.83c-.4-.23-.98-.34-1.64-.27-3.73.44-7.45.93-11.16,1.4v.1c1.13,1.62,2.78,2.98,4.83,4.16,1.23.71,2.61,1.36,4.09,1.95.24.09.4.08.51.02.07-.04.12-.1.16-.17,1.22-1.98,2.51-3.94,3.64-5.94.28-.5.07-.96-.42-1.24"/>
        <path class="cls-1" d="M445.1,188.99c-.2-.12-.45-.19-.83-.16-1.08.09-2.33-.19-3.18.26-.17.09-.34.18-.51.28-.61.35-1.17.78-1.2,1.24-.05.6.28,1.34.91,1.81.06.05.13.09.2.13.68.39,1.81.6,2.77.64,1.08.05,2.13-.39,2.92-.8.03-.01.05-.03.07-.04.74-.44.5-1.17.73-1.76.11-.28-.12-.46-.4-.62-.05-.03-.1-.05-.15-.08-.03-.02-.07-.04-.1-.06-.15-.09-.3-.18-.38-.29-.08-.03-.15-.07-.22-.1-.11-.07-.21-.14-.3-.22-.1-.08-.2-.16-.32-.23"/>
      </g>
    </g>
    <polygon class="cls-23" points="352.68 233.66 360.34 238.09 360.34 247.41 352.68 242.98 352.68 233.66"/>
    <polygon class="cls-23" points="551.65 228.72 543.99 233.16 543.99 242.48 551.65 238.05 551.65 228.72"/>
    <polygon class="cls-23" points="538.42 255.52 534.06 258.04 534.06 263.34 538.42 260.82 538.42 255.52"/>
    <polygon class="cls-23" points="488.63 306.56 484.27 309.08 484.27 314.38 488.63 311.86 488.63 306.56"/>
    <polygon class="cls-23" points="533.8 263.91 530.72 265.69 530.72 269.43 533.8 267.65 533.8 263.91"/>
    <polygon class="cls-23" points="511.8 338.34 508.72 340.12 508.72 343.87 511.8 342.09 511.8 338.34"/>
    <polygon class="cls-23" points="491.91 310.47 488.83 312.25 488.83 315.99 491.91 314.22 491.91 310.47"/>
    <polygon class="cls-23" points="506.16 283.2 503.08 284.98 503.08 288.73 506.16 286.95 506.16 283.2"/>
    <polygon class="cls-23" points="471.73 337.35 468.65 339.14 468.65 342.88 471.73 341.1 471.73 337.35"/>
    <polygon class="cls-23" points="361.88 250.81 366.47 253.46 366.47 259.04 361.88 256.39 361.88 250.81"/>
    <polygon class="cls-23" points="339.58 271.62 342.38 273.23 342.38 276.63 339.58 275.02 339.58 271.62"/>
    <polygon class="cls-23" points="375.04 271.62 377.83 273.23 377.83 276.63 375.04 275.02 375.04 271.62"/>
    <polygon class="cls-23" points="393.42 296.45 396.21 298.06 396.21 301.46 393.42 299.85 393.42 296.45"/>
    <polygon class="cls-23" points="403.9 343.84 406.69 345.46 406.69 348.85 403.9 347.24 403.9 343.84"/>
    <polygon class="cls-23" points="408.74 313.27 411.53 314.89 411.53 318.29 408.74 316.67 408.74 313.27"/>
  </g>
</svg>